<?xml version="1.0" encoding="UTF-8" standalone="no"?>
<!-- Created with Inkscape (http://www.inkscape.org/) -->

<svg
   version="1.1"
   id="svg1"
   width="595.534"
   height="595.534"
   viewBox="0 0 595.534 595.534"
   sodipodi:docname="logo.svg"
   inkscape:version="1.4 (e7c3feb100, 2024-10-09)"
   xmlns:inkscape="http://www.inkscape.org/namespaces/inkscape"
   xmlns:sodipodi="http://sodipodi.sourceforge.net/DTD/sodipodi-0.dtd"
   xmlns="http://www.w3.org/2000/svg"
   xmlns:svg="http://www.w3.org/2000/svg">
  <defs
     id="defs1" />
  <sodipodi:namedview
     id="namedview1"
     pagecolor="#ffffff"
     bordercolor="#000000"
     borderopacity="0.25"
     inkscape:showpageshadow="2"
     inkscape:pageopacity="0.0"
     inkscape:pagecheckerboard="0"
     inkscape:deskcolor="#d1d1d1"
     inkscape:zoom="0.52725792"
     inkscape:cx="330.00927"
     inkscape:cy="336.64738"
     inkscape:window-width="1440"
     inkscape:window-height="831"
     inkscape:window-x="0"
     inkscape:window-y="0"
     inkscape:window-maximized="1"
     inkscape:current-layer="g1" />
  <g
     inkscape:groupmode="layer"
     inkscape:label="Image"
     id="g1"
     transform="translate(-214.233,-214.233)">
    <g
       id="g3">
      <circle
         style="fill:#dfd4c2;fill-opacity:1;stroke:none;stroke-width:1.82322;stroke-linecap:round;stroke-dasharray:none;stroke-opacity:1;paint-order:stroke markers fill"
         id="path2"
         cx="512"
         cy="512"
         r="297.767" />
      <path
         style="fill:#5d4930;fill-opacity:1;stroke:none;stroke-width:1.276;stroke-dasharray:none;stroke-opacity:1"
         d="m 300.41717,684.11031 c 0.4569,-1.26681 4.11995,-9.90411 8.14011,-19.194 4.02015,-9.2899 10.64173,-24.95219 14.71462,-34.80512 4.07287,-9.85291 11.68609,-28.04883 16.91827,-40.43535 5.23218,-12.38653 10.47744,-24.96043 11.65613,-27.942 l 2.14309,-5.42106 5.28809,0.30266 5.28811,0.30264 0.99207,4.33524 c 0.54564,2.38438 2.17805,5.60897 3.62756,7.16575 2.60301,2.79565 2.78501,2.83053 14.77458,2.83053 10.1729,0 12.57009,-0.30414 14.80008,-1.87778 1.46354,-1.03278 3.53717,-4.02704 4.60805,-6.65392 1.07089,-2.62687 2.42099,-5.11457 3.00023,-5.52823 0.57922,-0.41364 2.55018,-0.75208 4.3799,-0.75208 1.82971,0 3.81188,0.33844 4.40482,0.75208 0.59294,0.41366 2.0108,2.89586 3.15078,5.51601 1.14,2.62015 2.94503,5.61441 4.01118,6.65392 1.49338,1.45603 3.82537,1.97183 10.15624,2.24635 5.7132,0.24773 8.72473,0.84208 9.88115,1.95009 0.91486,0.87657 1.66338,2.81628 1.66338,4.31048 0,1.4942 -0.60685,3.61092 -1.34857,4.70382 -1.29214,1.90396 -3.18192,2.00852 -45.16846,2.49893 l -43.81989,0.51185 -5.20812,12.18981 c -2.86448,6.70439 -5.20812,13.02221 -5.20812,14.03958 0,1.01737 0.82733,2.32664 1.83851,2.90947 1.01118,0.58283 3.89833,1.05797 6.41589,1.05587 2.77461,-0.002 5.71248,-0.74935 7.45954,-1.89677 1.65758,-1.08865 4.20427,-4.56442 5.99384,-8.1805 2.24062,-4.52749 3.79931,-6.47342 5.5682,-6.95156 1.35109,-0.36521 3.5537,-0.24845 4.8947,0.25945 1.7582,0.66594 2.90694,2.3346 4.11904,5.98333 0.92447,2.78289 2.71096,6.16923 3.96998,7.52518 1.48776,1.6023 3.77612,2.64585 6.53685,2.98099 3.859,0.46845 4.41761,0.2474 6.1039,-2.41545 1.02089,-1.61209 2.66181,-5.00404 3.64649,-7.53765 0.98468,-2.5336 2.45202,-5.45323 3.26076,-6.48807 1.18392,-1.51493 2.37185,-1.77717 6.0968,-1.34589 2.5445,0.2946 4.82989,0.75486 5.07866,1.02277 0.24876,0.26792 -1.07801,4.23562 -2.94838,8.81714 -1.87037,4.58151 -3.40068,8.53804 -3.40068,8.79229 0,0.25424 9.37893,0.46224 20.84205,0.46224 h 20.84205 l 1.96999,-2.69726 c 1.86502,-2.55352 1.96999,-3.96876 1.96999,-26.55857 0,-23.75303 0.0104,-23.87439 2.29552,-26.73357 2.19204,-2.74269 2.66273,-2.8694 10.43992,-2.8105 7.23679,0.0547 8.41392,0.33441 10.5632,2.50901 2.37402,2.40198 2.41394,2.68533 2.15425,15.29351 l -0.2646,12.84619 -3.80201,0.54772 c -2.0911,0.30126 -4.3803,0.93331 -5.08711,1.40456 -0.70682,0.47128 -1.88306,2.39811 -2.61388,4.28189 -0.73083,1.88377 -1.32877,5.71741 -1.32877,8.51923 0,3.90841 0.53377,5.76275 2.29311,7.96639 l 2.29312,2.87221 35.8528,0.29191 c 32.56225,0.26513 36.01573,0.13312 37.62794,-1.43825 1.53194,-1.49312 1.77317,-3.28639 1.7606,-13.08793 -0.008,-6.24675 -0.33215,-11.89542 -0.72035,-12.5526 -0.48381,-0.81909 -6.23369,-1.30201 -18.28259,-1.53552 -13.03576,-0.25265 -18.09297,-0.71041 -19.5747,-1.77182 -1.09884,-0.78716 -2.59587,-2.39946 -3.32676,-3.58289 -0.94069,-1.52317 -1.46769,-6.93614 -1.80411,-18.53058 l -0.47525,-16.37888 -71.52547,-0.51184 c -39.33903,-0.28151 -71.50526,-0.84775 -71.48055,-1.2583 0.0247,-0.41057 0.92993,-2.94417 2.01157,-5.63025 1.08167,-2.68607 5.5091,-13.17558 9.83874,-23.31001 4.32966,-10.13443 9.46817,-22.34182 11.41894,-27.12753 1.95077,-4.78568 9.73763,-23.21193 17.30413,-40.94718 7.5665,-17.73526 16.66804,-38.92544 20.22564,-47.08928 3.5576,-8.16385 13.7361,-31.6573 22.61889,-52.20768 8.8828,-20.55037 20.28863,-47.2139 25.34628,-59.2523 5.05766,-12.03839 9.5809,-22.97896 10.05162,-24.3124 l 0.85587,-2.42441 32.5782,0.0139 c 17.91802,0.009 33.58892,0.30537 34.82424,0.6615 1.68326,0.48525 3.19739,2.85439 6.04281,9.45505 2.08823,4.84415 5.19884,12.26247 6.91245,16.48515 1.71362,4.22268 4.40625,10.67187 5.98361,14.33152 1.57736,3.65966 5.86701,13.79409 9.53257,22.52096 3.66555,8.72687 8.57752,20.24328 10.91548,25.592 2.33795,5.34873 10.23215,23.54464 17.54268,40.43536 7.31051,16.89072 17.45885,40.36881 22.55186,52.17355 l 9.26002,21.46315 -3.64942,3.29976 c -2.00719,1.81487 -3.8733,3.0679 -4.14694,2.78453 -0.27363,-0.28338 -6.29436,-13.72998 -13.3794,-29.88132 l -12.88187,-29.36603 -12.78167,0.19146 c -7.02991,0.10529 -17.16585,0.4951 -22.5243,0.86627 -6.55832,0.45425 -9.74264,1.07371 -9.74264,1.89529 0,0.67124 2.09774,6.50028 4.66163,12.95341 2.5639,6.45311 7.40007,18.41245 10.74706,26.57629 5.36116,13.07674 6.47496,15.06066 9.35827,16.66914 2.24611,1.25301 4.31647,1.62841 6.59959,1.19671 1.82971,-0.346 4.28913,-1.59339 5.46538,-2.77198 1.33435,-1.33701 2.13254,-3.32699 2.12242,-5.29142 -0.009,-1.7317 -1.2848,-5.4518 -2.83529,-8.26692 -1.5505,-2.81512 -2.82639,-5.90288 -2.8353,-6.86168 -0.009,-0.9588 0.467,-2.88545 1.0576,-4.28145 0.59058,-1.39599 2.30856,-3.08901 3.81771,-3.76224 1.52102,-0.67854 4.32544,-0.95289 6.29257,-0.61559 2.17154,0.37235 4.40845,1.67453 5.76413,3.35549 1.97032,2.44309 2.14555,3.39555 1.58376,8.60856 -0.51934,4.8192 -0.27946,6.60507 1.34894,10.04276 1.22294,2.58169 1.98062,6.13303 1.98062,9.28332 0,3.85103 -0.53713,5.77463 -2.19055,7.84482 -1.99758,2.50113 -3.06511,2.82573 -12.11889,3.68505 -5.46059,0.5183 -10.89073,1.37283 -12.06698,1.89899 -1.17624,0.52615 -2.13863,1.61319 -2.13863,2.41565 0,0.80247 3.68573,10.60128 8.19051,21.77514 4.50478,11.17387 8.83394,22.008 9.62035,24.07582 1.41155,3.71159 1.38884,3.81288 -1.77462,7.91507 -1.76246,2.28546 -3.46735,4.16368 -3.78866,4.17382 -0.3213,0.0105 -4.45567,-9.77048 -9.18747,-21.73474 -4.73182,-11.96426 -11.89,-30.50566 -15.90704,-41.20312 -4.01706,-10.69745 -15.56787,-40.87043 -25.66847,-67.05103 -10.1006,-26.18061 -20.90151,-54.19385 -24.00201,-62.25162 -3.10049,-8.05778 -6.02138,-14.57211 -6.49087,-14.4763 -0.46947,0.0958 -5.0611,11.06477 -10.2036,24.37547 -5.14251,13.31068 -14.82038,38.25125 -21.50636,55.42349 -6.686,17.17223 -15.48103,39.9747 -19.5445,50.67216 -4.06348,10.69744 -9.79181,25.66877 -12.72961,33.26959 l -5.34148,13.81968 -5.44746,0.307 c -2.99611,0.16886 -5.44746,0.007 -5.44746,-0.36163 0,-0.36776 2.31027,-6.26411 5.13392,-13.103 2.82368,-6.8389 5.41058,-13.44279 5.7487,-14.6753 0.43382,-1.58139 0.11176,-2.52242 -1.0943,-3.19734 -0.93998,-0.52601 -5.7263,-1.28475 -10.63627,-1.68609 -4.90998,-0.40133 -9.96783,-1.24034 -11.23968,-1.86445 -1.27185,-0.62411 -2.92196,-2.40415 -3.66693,-3.95565 -0.74496,-1.5515 -1.35446,-4.45114 -1.35446,-6.44363 0,-1.99252 0.86445,-6.04613 1.92103,-9.00804 1.44782,-4.05874 1.77688,-6.66738 1.3359,-10.59003 -0.51488,-4.57994 -0.29896,-5.56306 1.79868,-8.18945 2.11243,-2.64492 2.99786,-2.98471 7.77784,-2.98471 4.52203,0 5.68777,0.3907 7.21105,2.41669 0.99937,1.32918 1.81703,3.87102 1.81703,5.64853 0,1.79675 -1.10147,4.9776 -2.48051,7.16329 -1.36429,2.1623 -2.69713,5.67067 -2.96186,7.79639 -0.37612,3.02014 -0.0417,4.33842 1.53001,6.03113 1.10625,1.19143 3.1876,2.2172 4.62524,2.27953 1.43763,0.0623 3.68319,0.0269 4.99013,-0.0786 1.30694,-0.10557 3.31993,-1.19303 4.47332,-2.41659 1.15338,-1.22356 4.70665,-8.67382 7.89613,-16.55616 3.1895,-7.88233 7.98774,-19.74069 10.66276,-26.35193 2.67503,-6.61124 4.6822,-12.20938 4.46038,-12.4403 -0.2218,-0.23093 -8.54388,-0.92544 -18.49347,-1.54335 -9.94958,-0.61792 -20.0475,-1.12348 -22.4398,-1.12348 h -4.34963 l -6.93769,16.63481 c -3.81572,9.14913 -9.00901,21.20052 -11.54063,26.78084 -2.53161,5.58033 -4.60294,10.73369 -4.60294,11.45193 0,0.71824 1.55051,2.8813 3.44557,4.80685 2.32656,2.36396 3.44556,4.40933 3.44556,6.29795 0,1.53834 -0.67333,3.52216 -1.4963,4.40849 -0.85918,0.92532 -3.76772,1.81438 -6.8307,2.08794 -4.09818,0.36601 -5.63315,0.97962 -6.62353,2.64772 -0.70903,1.19423 -4.55098,10.19317 -8.53767,19.99765 -5.54075,13.62641 -6.95882,18.02428 -6.01887,18.66649 0.67631,0.46208 31.70511,0.8472 68.95289,0.85582 l 67.72325,0.0157 v 20.43757 c 0,18.5799 0.15442,20.5266 1.699,21.41686 0.99571,0.57393 12.30727,0.86711 27.32692,0.70829 14.7894,-0.15637 27.83882,-0.77405 30.85567,-1.46049 2.87526,-0.65425 8.00798,-2.65447 11.40603,-4.44492 3.42112,-1.80265 8.36054,-5.60544 11.06839,-8.52143 3.38628,-3.64657 6.21182,-8.2317 9.18785,-14.90951 2.78808,-6.25611 5.51395,-14.85739 7.76025,-24.48686 1.9044,-8.16384 4.95187,-18.18651 6.77216,-22.27259 1.9918,-4.47112 5.55516,-10.01458 8.94926,-13.92222 3.73098,-4.29549 7.65844,-7.56318 11.60455,-9.65512 3.28069,-1.73918 7.88965,-3.63956 10.24214,-4.22308 2.35249,-0.58352 7.36357,-1.07219 11.13571,-1.08596 3.77216,-0.0138 11.68508,0.69189 17.58429,1.56811 5.89919,0.87623 14.28942,2.25422 18.64495,3.0622 4.35553,0.80801 8.36135,1.76342 8.90179,2.12315 0.55706,0.37078 0.78057,2.5851 0.51606,5.11247 -0.25663,2.4521 -1.20738,5.67601 -2.11278,7.1642 -1.621,2.66442 -1.7646,2.69545 -9.3857,2.02769 -4.25672,-0.37298 -10.73343,-1.35362 -14.39267,-2.17922 -3.65923,-0.82558 -7.82955,-1.50107 -9.26739,-1.50107 -1.43783,0 -2.61423,0.49094 -2.61423,1.09098 0,0.60004 0.44041,1.97723 0.97868,3.06044 0.53827,1.08321 2.25553,2.6806 3.81611,3.54972 1.89808,1.05712 6.92913,1.79105 15.19704,2.21698 11.98422,0.61737 12.34106,0.70184 11.74909,2.78098 -0.33578,1.17935 -0.68913,2.24776 -0.78521,2.37426 -0.0961,0.1265 -4.67661,0.91061 -10.17896,1.74247 -5.50236,0.83185 -12.90477,2.53794 -16.44982,3.79129 -4.65257,1.64492 -7.82299,3.63466 -11.39732,7.1529 -3.43196,3.3781 -5.85707,7.01384 -7.90133,11.84575 -1.62224,3.83442 -4.31777,13.65117 -5.99004,21.81503 -1.67229,8.16384 -4.3037,19.44324 -5.84759,25.0653 -1.54389,5.62208 -5.13333,15.11987 -7.97652,21.10623 -2.84321,5.98635 -7.63613,14.04737 -10.65097,17.91337 -3.01482,3.866 -7.60517,8.77291 -10.20076,10.90425 -2.59559,2.13132 -6.90569,5.00094 -9.578,6.37692 -2.67232,1.37598 -6.73572,2.9678 -9.02977,3.53739 -2.66069,0.66061 -38.62763,1.04466 -99.32899,1.06062 l -95.15798,0.025 -2.41581,5.88615 c -1.32869,3.23739 -5.92984,14.63863 -10.22477,25.33608 -4.29494,10.69746 -8.62151,21.17738 -9.6146,23.28872 l -1.80561,3.8388 h -39.87821 -39.87823 z m 68.91896,-9.37376 c 2.5743,-1.15843 3.85994,-2.91111 6.57028,-8.9572 1.85332,-4.13433 5.70415,-13.28245 8.55737,-20.32916 2.85322,-7.04671 5.33636,-13.72622 5.51809,-14.84336 0.32234,-1.98159 -0.33345,-2.03778 -26.8757,-2.30256 l -27.2061,-0.2714 -5.00458,12.04372 c -2.75254,6.62404 -6.44258,15.44835 -8.20009,19.60957 -1.75752,4.16122 -3.1955,8.50117 -3.1955,9.64436 0,1.14317 0.70788,2.92092 1.57307,3.95055 1.17062,1.39311 2.93364,1.86818 6.89114,1.85695 2.92493,-0.009 6.37454,-0.59084 7.66579,-1.29452 1.29125,-0.70367 3.3654,-2.885 4.60923,-4.84739 2.02432,-3.19376 2.20039,-4.30042 1.67885,-10.55199 -0.46771,-5.60666 -0.25588,-7.57977 1.07414,-10.00464 1.11239,-2.02812 2.88409,-3.37652 5.39214,-4.10386 2.05446,-0.5958 5.15057,-0.79735 6.88024,-0.44789 1.72967,0.34948 3.79956,1.3405 4.59974,2.2023 0.80019,0.86178 1.73924,2.78713 2.08681,4.27853 0.46689,2.00346 -0.15333,4.23832 -2.37484,8.55725 -1.6537,3.21509 -3.00675,6.54753 -3.00675,7.40542 0,0.85788 0.5243,2.79907 1.16509,4.31375 0.6408,1.51467 2.45864,3.36094 4.03963,4.10282 1.581,0.74186 3.20908,1.36688 3.61796,1.38892 0.40886,0.022 2.18366,-0.60804 3.94399,-1.40017 z M 592.4847,612.60701 c 2.7703,-0.61891 6.74782,-2.192 8.83893,-3.49575 2.09109,-1.30375 5.20754,-3.94586 6.92541,-5.87136 1.81387,-2.0331 3.34919,-4.99929 3.66191,-7.07474 0.38647,-2.56494 0.0893,-4.05758 -1.05269,-5.28749 -1.4076,-1.51599 -4.48899,-1.71367 -26.71156,-1.71367 h -25.1204 v 11.6017 c 0,6.38094 0.28516,11.90881 0.63368,12.28416 0.3485,0.37535 6.74334,0.68245 14.21074,0.68245 7.46739,0 15.84367,-0.50638 18.61398,-1.1253 z M 698.19369,479.32763 c 0.77617,-1.32523 0.56062,-2.19511 -0.94601,-3.81775 -1.20248,-1.29503 -2.56521,-1.84771 -3.55119,-1.44022 -0.87999,0.36368 -1.59997,1.74069 -1.59997,3.06004 0,1.31935 0.74853,2.8675 1.66338,3.44036 0.91486,0.57285 2.06055,0.91381 2.54597,0.75769 0.48543,-0.15611 1.33495,-1.05617 1.88782,-2.00012 z m -11.8304,-1.48882 c -0.0166,-0.42227 -0.59982,-1.57595 -1.29599,-2.56374 -0.69617,-0.98778 -2.58854,-2.29259 -4.20524,-2.89957 -2.39977,-0.90097 -3.47075,-0.76564 -5.83278,0.73709 -1.59131,1.01238 -2.89329,2.26089 -2.89329,2.77449 0,0.51359 1.60397,0.67255 3.56439,0.35325 2.11502,-0.34446 4.72385,-0.0152 6.41588,0.80973 1.56833,0.76462 3.1723,1.42763 3.56438,1.47336 0.39208,0.0458 0.69927,-0.26235 0.68265,-0.68461 z M 476.75177,396.45625 c 1.53484,-1.45714 4.88228,-8.66604 9.11199,-19.62318 3.67724,-9.52596 6.35193,-17.64292 5.94377,-18.03773 -0.40815,-0.3948 -9.93819,-1.19657 -21.17788,-1.78171 -11.23968,-0.58515 -20.71378,-0.75997 -21.05355,-0.38851 -0.33977,0.37145 -4.06193,8.87171 -8.27146,18.88945 -4.20954,10.01774 -7.42077,18.86784 -7.13607,19.66687 0.28471,0.79903 1.35162,1.73786 2.37092,2.08629 1.01931,0.34842 3.5387,0.32682 5.59866,-0.048 2.38551,-0.43406 4.52786,-1.68938 5.90055,-3.45745 1.18534,-1.52678 3.01062,-4.50188 4.05617,-6.61133 1.04556,-2.10947 2.81989,-4.08392 3.94296,-4.38768 1.12308,-0.30378 3.02876,-0.39896 4.23488,-0.21155 1.71906,0.26714 2.69013,1.74569 4.49386,6.84249 1.83926,5.1972 2.89668,6.78097 5.27013,7.89346 1.63307,0.76546 3.26616,1.40976 3.62909,1.4318 0.36293,0.022 1.75162,-0.99642 3.08598,-2.26322 z m 79.38389,0.78956 c 1.83998,-1.02475 3.25843,-3.09146 4.39113,-6.39799 0.92025,-2.68637 2.30857,-5.69044 3.08517,-6.67573 0.77659,-0.9853 2.38003,-1.79144 3.56318,-1.79144 1.18315,0 2.84762,0.28782 3.69879,0.63958 0.85117,0.35178 2.60036,2.8771 3.88709,5.61182 1.28673,2.73475 3.38922,5.713 4.6722,6.61837 1.28299,0.90536 3.95297,1.87005 5.93329,2.14374 2.27263,0.31409 4.26181,-0.0356 5.39339,-0.94814 1.71369,-1.38196 1.42013,-2.31454 -6.65266,-21.13431 l -8.44547,-19.68856 -5.2286,0.54957 c -2.87573,0.30227 -11.90111,0.84009 -20.05639,1.19517 -8.15529,0.35509 -15.38558,1.01688 -16.06732,1.47066 -0.95785,0.63755 -0.13883,3.58082 3.60396,12.95134 2.66392,6.66945 5.75576,14.77833 6.87075,18.01971 1.38292,4.02032 2.83551,6.36612 4.57031,7.38069 1.39869,0.81801 2.8851,1.50572 3.30314,1.52825 0.41804,0.0225 1.98315,-0.64018 3.47804,-1.47273 z M 496.4365,344.4219 c 1.05562,-0.60845 2.70012,-2.98454 3.65445,-5.28018 l 1.73512,-4.17393 -5.5687,-3.87634 c -3.99031,-2.77762 -6.37164,-5.39045 -8.40158,-9.21841 -1.55809,-2.93814 -3.11629,-7.56125 -3.46266,-10.27354 -0.34637,-2.71232 -0.34522,-6.74535 0.003,-8.96231 0.34777,-2.21695 1.99074,-6.45548 3.65105,-9.41893 1.6603,-2.96346 3.57373,-5.58043 4.25208,-5.81553 0.95438,-0.33073 1.09017,0.73533 0.60027,4.71261 -0.37614,3.05385 -0.14999,7.30894 0.55723,10.48389 0.89385,4.01281 2.28323,6.55709 5.57799,10.21452 2.82304,3.13378 5.74345,5.27009 8.18966,5.99082 2.09111,0.6161 5.0852,1.08771 6.65352,1.04801 1.56833,-0.0397 4.27767,-0.62833 6.02078,-1.30812 1.74311,-0.67977 4.83337,-3.01746 6.86726,-5.19486 2.03388,-2.17741 4.39985,-5.93824 5.25769,-8.3574 1.09198,-3.07947 1.44663,-6.5538 1.18262,-11.58571 l -0.37708,-7.18724 2.2621,2.27102 c 1.24415,1.24907 3.28907,4.44384 4.54426,7.09948 1.69649,3.58932 2.27978,6.47911 2.27288,11.26048 -0.007,4.59956 -0.65,7.91394 -2.25821,11.6336 -1.23692,2.86087 -3.90602,6.93778 -5.93135,9.0598 -2.02534,2.122 -5.07141,4.62755 -6.76906,5.5679 l -3.08663,1.70971 2.29096,4.5857 2.29096,4.58571 16.47895,-0.21295 c 9.06342,-0.11713 17.38718,-0.45677 18.49725,-0.75473 1.11008,-0.29799 2.51599,-1.83581 3.12426,-3.41737 0.99536,-2.58802 0.59535,-4.04811 -3.99993,-14.60046 -2.80825,-6.44869 -8.43587,-19.6712 -12.50581,-29.38337 l -7.40021,-17.65847 h -29.41167 -29.41169 l -4.10886,9.46903 c -2.25986,5.20798 -7.75057,17.99118 -12.20157,28.40712 -4.451,10.41594 -8.37107,19.951 -8.71126,21.189 -0.42606,1.55055 -0.0119,2.90424 1.33111,4.35065 1.36687,1.47211 3.29912,2.13997 6.4645,2.23439 2.48319,0.0741 9.43373,0.45509 15.44565,0.84669 6.01193,0.39161 11.27969,0.79165 11.70613,0.889 0.42645,0.0974 1.63907,-0.32083 2.69469,-0.92928 z m 147.2474,339.68841 c -0.46228,-1.26681 -4.10724,-10.36476 -8.09993,-20.21768 -3.99269,-9.85292 -9.24112,-22.89781 -11.66318,-28.98864 l -4.40376,-11.07425 4.21032,-3.98139 c 3.7077,-3.5061 4.79732,-3.98658 9.12752,-4.02502 3.90027,-0.0347 5.53828,-0.60648 7.92024,-2.76509 1.65167,-1.49677 4.00645,-5.165 5.23285,-8.15158 1.64085,-3.99593 2.87536,-5.60467 4.6739,-6.09083 1.34425,-0.36337 3.52354,-0.36888 4.84285,-0.0124 1.73304,0.46846 3.01633,2.13277 4.62413,5.99713 1.22398,2.94182 3.3492,6.46219 4.72271,7.82307 1.79804,1.78149 3.92502,2.60184 7.59608,2.92971 2.87161,0.25647 5.98864,-0.0575 7.13606,-0.71891 1.1243,-0.64803 2.03732,-2.1723 2.03732,-3.40129 0,-1.22487 -2.10323,-7.08203 -4.67382,-13.0159 -2.5706,-5.93389 -8.29269,-19.36473 -12.71574,-29.84629 l -8.04192,-19.0574 1.97291,-7.96266 c 1.92465,-7.7679 2.00899,-7.90432 3.44835,-5.57717 0.81149,1.31203 2.90349,5.87023 4.6489,10.12934 1.7454,4.25912 4.25297,10.27746 5.5724,13.37409 1.31942,3.09663 4.87829,11.61877 7.90862,18.93808 3.03032,7.31931 7.09978,16.99308 9.04325,21.49728 1.94346,4.50419 5.34714,12.56566 7.56374,17.91439 2.21659,5.34873 6.82316,16.40448 10.23682,24.56833 3.41366,8.16383 8.01136,18.98926 10.2171,24.05647 2.20574,5.06721 4.81628,11.2091 5.8012,13.64864 0.98491,2.43954 1.79076,4.85798 1.79076,5.37433 0,0.5544 -16.35587,0.93881 -39.9446,0.93881 H 644.5244 Z m 21.56096,-11.57239 c 1.39649,-1.70913 2.13693,-3.92968 2.13376,-6.39909 -0.003,-2.22071 -0.97149,-5.47194 -2.34659,-7.87644 -1.28795,-2.25209 -2.35508,-5.10551 -2.37138,-6.34092 -0.0163,-1.2354 0.94682,-3.46884 2.14032,-4.96317 1.57971,-1.97794 3.32493,-2.84037 6.41589,-3.17052 2.45719,-0.26245 5.24695,0.10682 6.62214,0.87656 1.30694,0.73152 3.13726,3.00261 4.06737,5.04683 1.4143,3.10838 1.5281,4.50017 0.69525,8.50264 -0.84342,4.05325 -0.71491,5.46993 0.83946,9.25439 1.14254,2.78174 2.92535,5.07556 4.72293,6.07671 1.58819,0.88451 5.16617,1.6082 7.95108,1.6082 3.04448,0 5.90579,-0.63541 7.17596,-1.59356 1.16187,-0.87647 2.11561,-2.60393 2.1194,-3.8388 0.004,-1.23489 -3.48031,-10.53705 -7.74246,-20.67147 -4.26215,-10.13444 -8.16716,-19.00207 -8.6778,-19.70584 -0.70405,-0.97035 -7.47246,-1.2796 -28.00439,-1.2796 h -27.07596 l 0.64364,2.76188 c 0.354,1.51903 3.86995,10.61698 7.81321,20.21767 3.94327,9.6007 7.85201,18.71604 8.68609,20.25632 0.83408,1.54026 2.60415,3.24846 3.93348,3.79596 1.32933,0.54751 3.70014,0.7849 5.26846,0.52755 1.56833,-0.25736 3.81389,-1.64574 4.99014,-3.0853 z"
         id="path1" />
    </g>
  </g>
</svg>
